<?xml version="1.0" standalone="no"?>
<!DOCTYPE svg PUBLIC "-//W3C//DTD SVG 20010904//EN"
 "http://www.w3.org/TR/2001/REC-SVG-20010904/DTD/svg10.dtd">
<svg version="1.0" xmlns="http://www.w3.org/2000/svg"
 width="553.000000pt" height="553.000000pt" viewBox="0 0 553.000000 553.000000"
 preserveAspectRatio="xMidYMid meet">
<metadata>
Created by potrace 1.11, written by Peter Selinger 2001-2013
</metadata>
<g transform="translate(0.000000,553.000000) scale(0.100000,-0.100000)"
fill="#000000" stroke="none">
<path d="M2614 5331 c-2 -2 -4 -15 -4 -28 0 -12 -4 -23 -8 -23 -5 0 -8 -21 -7
-47 0 -27 -1 -52 -4 -58 -8 -15 -11 -34 -15 -95 -2 -30 -5 -55 -6 -55 -2 0 -3
-22 -4 -50 -1 -27 -6 -61 -11 -75 -4 -14 -9 -45 -11 -70 -2 -25 -8 -79 -14
-120 -6 -41 -12 -98 -13 -125 -2 -28 -6 -56 -10 -62 -4 -7 -8 -39 -8 -72 -1
-34 -5 -61 -10 -61 -6 0 -8 -12 -6 -27 2 -16 0 -34 -6 -40 -6 -9 -6 -13 1 -13
11 0 10 -13 -2 -42 -5 -10 -9 -43 -11 -75 -5 -78 -15 -165 -22 -183 -4 -8 -7
-37 -8 -65 -1 -27 -5 -62 -9 -76 -4 -15 -9 -53 -12 -85 -2 -33 -5 -82 -7 -111
-2 -29 -8 -58 -14 -65 -5 -7 -8 -37 -7 -65 0 -29 -2 -53 -6 -53 -4 0 -8 -28
-9 -62 -1 -34 -6 -67 -10 -73 -4 -5 -7 -35 -6 -65 0 -30 -4 -58 -9 -62 -5 -3
-8 -29 -7 -58 1 -28 -2 -57 -6 -63 -5 -7 -8 -35 -8 -62 -1 -28 -4 -56 -8 -63
-5 -6 -9 -39 -9 -72 -1 -33 -5 -60 -8 -60 -4 0 -8 -30 -9 -67 -1 -37 -5 -70
-9 -73 -4 -3 -7 -32 -7 -65 0 -33 -3 -62 -7 -65 -4 -3 -8 -34 -9 -68 -1 -35
-5 -65 -9 -67 -3 -2 -5 -25 -5 -52 1 -26 -3 -53 -8 -60 -5 -7 -9 -38 -9 -70 0
-32 -5 -64 -11 -70 -6 -9 -6 -13 2 -13 6 0 11 -9 11 -20 0 -46 31 -9 140 167
63 102 134 215 157 250 24 34 40 63 36 63 -4 0 3 10 14 23 18 20 147 225 149
237 0 3 4 12 7 20 4 8 5 24 3 35 -3 11 -5 25 -5 31 -1 6 -19 19 -42 29 -74 34
-121 111 -124 205 -3 95 58 192 139 221 l36 13 -1 928 0 928 -22 1 c-17 1 -18
2 -4 6 10 3 24 0 32 -7 11 -9 13 -7 11 7 -2 15 -13 18 -70 18 -37 0 -70 -2
-72 -4z"/>
<path d="M2792 5329 l-22 -8 2 -898 3 -898 2 890 c2 489 6 892 11 897 4 4 6
-413 4 -927 l-2 -933 37 -13 c90 -29 150 -146 133 -256 -6 -37 -27 -78 -79
-158 -39 -60 -71 -111 -72 -114 -6 -40 -5 -66 3 -120 4 -36 13 -70 18 -76 5
-6 8 -37 6 -70 -2 -35 1 -63 8 -70 12 -12 47 -29 58 -27 5 1 39 -60 43 -78 1
-3 5 -17 9 -32 4 -15 4 -33 0 -40 -5 -7 -9 -20 -9 -29 0 -9 -15 -33 -33 -54
-23 -28 -32 -47 -30 -70 1 -17 -2 -36 -6 -43 -4 -7 -1 -15 8 -18 11 -4 14 -20
13 -65 -1 -32 2 -60 7 -62 6 -2 9 -29 8 -60 0 -31 3 -57 7 -57 5 0 9 -25 10
-56 0 -30 5 -63 9 -72 5 -9 8 -36 7 -59 -1 -36 3 -43 30 -59 16 -10 32 -18 35
-17 3 1 15 -12 25 -28 11 -16 26 -29 33 -29 7 0 10 -4 7 -10 -3 -5 -1 -10 4
-10 6 0 11 -9 11 -20 0 -11 5 -20 11 -20 5 0 7 -5 4 -10 -3 -6 -1 -10 5 -10 6
0 9 -4 5 -9 -3 -5 -1 -12 5 -16 6 -4 8 -11 5 -16 -4 -5 -3 -9 2 -9 4 0 9 -12
10 -28 2 -15 6 -46 9 -70 3 -23 2 -48 -4 -55 -5 -6 -8 -27 -6 -45 2 -22 -2
-35 -12 -39 -7 -3 -11 -9 -8 -14 6 -10 -12 -47 -35 -71 -34 -36 -42 -49 -36
-57 3 -5 1 -12 -5 -16 -6 -4 -7 -12 -1 -24 6 -10 6 -23 1 -31 -5 -8 -5 -21 0
-31 5 -9 7 -19 4 -22 -3 -3 -2 -12 2 -19 5 -7 9 -29 10 -48 0 -19 4 -46 8 -60
6 -24 15 -94 20 -175 2 -21 8 -41 15 -43 6 -2 9 -8 5 -13 -3 -5 5 -9 16 -9 13
0 24 -8 27 -20 3 -11 9 -18 13 -15 4 2 13 -7 20 -20 7 -13 17 -22 22 -19 4 3
8 0 8 -6 0 -6 5 -8 10 -5 6 3 10 -2 10 -11 0 -10 3 -14 7 -11 3 4 11 -3 17
-15 6 -11 20 -26 31 -32 23 -13 75 -67 75 -79 0 -5 4 -6 9 -2 5 3 22 -7 37
-22 18 -18 29 -23 32 -15 2 7 8 10 13 6 5 -3 17 1 28 8 18 13 21 18 21 39 0 5
5 7 10 4 9 -6 16 27 10 50 -1 6 -3 28 -4 50 -1 22 -4 45 -8 50 -3 6 -5 34 -4
63 1 30 -4 58 -10 62 -6 6 -9 33 -6 65 2 35 0 55 -7 55 -7 0 -11 25 -11 64 0
36 -4 67 -8 70 -5 3 -8 25 -7 48 1 24 -3 57 -7 73 -8 27 -11 51 -22 185 -2 25
-7 57 -11 72 -4 15 -9 48 -11 75 -7 100 -15 169 -21 193 -4 14 -7 45 -7 70 -1
25 -5 51 -9 58 -5 6 -5 17 -2 22 3 6 2 10 -3 10 -10 0 -10 43 0 50 4 3 1 18
-6 32 -8 15 -13 48 -12 75 1 26 -4 59 -11 72 -7 14 -10 28 -7 33 3 4 -2 11
-12 15 -10 3 -20 0 -25 -9 -11 -19 -42 -17 -64 6 -30 30 -16 106 20 106 20 0
45 35 46 66 2 28 2 27 8 -6 l7 -35 6 28 c3 16 0 33 -6 40 -7 7 -11 36 -10 67
1 30 -3 60 -7 66 -11 13 -15 87 -6 101 4 6 1 16 -6 22 -8 6 -13 30 -12 63 1
29 -3 59 -8 66 -10 12 -16 79 -20 204 -1 36 -5 64 -9 61 -9 -5 -9 -3 -14 72
-4 67 -12 124 -19 134 -3 5 -1 11 5 13 6 2 5 13 -3 28 -7 14 -12 45 -12 70 0
25 -3 53 -8 63 -4 10 -8 41 -9 70 0 29 -3 57 -6 62 -4 6 -7 31 -8 57 -1 25 -5
55 -9 65 -4 10 -8 41 -9 68 -1 28 -4 55 -7 60 -4 6 -7 33 -6 61 0 28 -4 57 -8
64 -4 7 -9 38 -10 70 -1 31 -6 63 -10 70 -4 7 -7 41 -7 76 0 35 -3 62 -7 59
-4 -2 -8 26 -9 62 -1 36 -5 69 -9 72 -4 3 -8 31 -7 61 0 30 -4 60 -9 67 -5 6
-7 20 -5 30 1 10 -1 23 -5 30 -4 6 -3 14 3 18 7 4 6 14 -2 28 -6 12 -13 47
-15 77 -8 126 -15 186 -23 195 -4 6 -8 36 -8 69 0 32 -4 61 -9 65 -5 3 -8 29
-7 56 1 28 -2 55 -6 60 -5 6 -8 34 -7 62 0 28 -4 57 -9 65 -6 7 -9 36 -9 63 1
28 -2 58 -7 68 -5 10 -10 46 -10 80 -1 35 -6 67 -12 72 -14 12 -95 14 -124 4z
m51 -16 c-7 -2 -19 -2 -25 0 -7 3 -2 5 12 5 14 0 19 -2 13 -5z"/>
<path d="M2606 2588 c-58 -97 -190 -306 -270 -430 -21 -32 -23 -41 -13 -67 8
-23 8 -36 -2 -55 -12 -22 -19 -24 -69 -23 -55 2 -56 2 -59 -28 -2 -16 -8 -64
-13 -105 -5 -41 -11 -99 -13 -128 -1 -29 -7 -56 -12 -60 -6 -4 -11 -34 -12
-67 -3 -101 -13 -197 -22 -214 -4 -9 -7 -38 -6 -64 1 -26 -2 -50 -7 -53 -5 -3
-8 -27 -7 -52 1 -26 -3 -58 -8 -72 -5 -14 -9 -43 -8 -65 1 -22 -3 -49 -8 -60
-6 -10 -9 -41 -8 -68 1 -26 -2 -53 -6 -60 -4 -6 -8 -37 -9 -69 -2 -32 -6 -64
-11 -71 -4 -6 -8 -34 -8 -62 0 -27 -3 -54 -6 -60 -3 -5 -7 -35 -8 -65 -1 -30
-6 -57 -10 -60 -4 -3 -7 -31 -7 -63 1 -48 6 -62 28 -86 28 -29 68 -47 68 -30
0 5 3 8 8 7 12 -4 62 34 56 43 -3 5 0 9 6 9 7 0 21 11 31 24 11 14 28 28 39
31 11 4 18 11 15 16 -4 5 5 14 19 20 14 7 23 16 20 20 -3 5 0 9 5 9 6 0 29 19
51 41 22 23 40 38 40 34 0 -5 11 4 24 19 15 19 23 38 21 58 -2 16 2 31 9 34 7
3 10 23 8 54 -2 28 0 56 6 63 5 7 9 33 9 60 1 26 5 53 10 60 6 6 9 32 7 57 -2
25 2 55 8 67 8 17 7 25 -3 36 -8 8 -20 24 -28 35 -8 12 -18 19 -23 16 -4 -3
-8 4 -8 15 0 11 -6 26 -13 33 -7 7 -12 22 -12 33 0 11 -4 23 -8 26 -11 8 -15
189 -4 196 4 2 5 9 2 14 -4 5 -1 9 5 9 6 0 8 4 5 10 -5 9 20 68 34 80 3 3 12
17 19 31 8 14 27 33 43 43 16 10 27 22 24 27 -4 5 3 9 13 9 11 0 23 7 26 16 3
8 10 13 16 9 6 -4 7 2 2 16 -9 24 -4 69 8 69 3 0 6 25 5 55 -1 30 2 55 7 55 4
0 8 29 8 65 0 36 4 65 9 65 5 0 8 24 7 53 -1 28 2 58 8 65 11 16 15 122 4 122
-5 0 -8 5 -8 10 0 6 -12 22 -26 35 -24 22 -27 32 -26 91 0 36 5 71 11 78 6 7
9 15 6 18 -3 3 4 13 15 23 11 10 20 14 20 10 0 -4 9 0 21 11 12 10 24 19 28
19 3 0 6 28 6 63 0 34 -2 62 -5 62 -3 0 -36 -51 -74 -112z"/>
</g>
</svg>
